<svg enable-background="new 0 0 128 128" id="Слой_1" version="1.1" viewBox="0 0 128 128" xml:space="preserve" xmlns="http://www.w3.org/2000/svg" xmlns:xlink="http://www.w3.org/1999/xlink"><g><path d="M96.2,97.5L77,88.2v-2.8c5.3-4,11.1-11.3,16-24.3c2.6-0.1,4.8-1.3,6.3-3.4c1.9-2.6,2.2-6.2,0.9-9   c-0.9-1.9-2.5-3.3-4.5-3.9C95.2,21.6,83.4,7.8,64,7.8c-19.4,0-31.1,13.7-31.7,36.9c0,0,0,0,0,0.1c-2,0.6-3.6,2-4.5,3.9   c-1.3,2.8-1,6.4,0.9,9c1.5,2.1,3.7,3.2,6.3,3.4c4.9,13,10.7,20.3,16,24.3v2.8l-19.2,9.2c-4.1,2-6.8,6.2-6.8,10.8V126h31.7h14.5H103   v-17.7C103,103.7,100.3,99.5,96.2,97.5z M96.6,50.3c0.7,1.5,0.5,3.6-0.5,5c-0.3,0.5-0.9,1-1.6,1.3c0.6-2.4,1-5.2,1.2-7.6   C96,49.4,96.3,49.8,96.6,50.3z M64,11.8c17.2,0,27.3,12.1,27.7,33.2c-11.6,2.6-21.5-2.5-30.2-7c-7.3-3.8-13.6-7.1-19.5-4.9   c-1.8,0.7-3.4,1.8-4.9,3.5C39.7,20.7,49.2,11.8,64,11.8z M31.9,55.3c-1-1.4-1.2-3.5-0.5-5c0.2-0.5,0.6-0.9,1-1.2   c0.2,2.8,0.7,5.3,1.3,7.6C32.9,56.4,32.3,55.9,31.9,55.3z M38.3,58.4c-1-3.6-2-7.3-2-12c0-0.3,0-0.6,0-0.9c2.1-4.8,4.4-7.7,7.1-8.7   c4.2-1.6,9.8,1.3,16.3,4.7c7.2,3.7,15.7,8.2,25.6,8.2c2,0,4.1-0.2,6.3-0.6c-0.3,3-0.9,6.8-1.8,9.3c-9,25.1-21,27.8-25.8,27.8   C59.3,86.2,47.3,83.5,38.3,58.4z M64,90.2c2.1,0,5.3-0.4,9-2.3v2.2l-6.6,6.3l-0.1,0.1c-1.2,1.3-3.4,1.3-4.6,0L55,90.1v-2.2   C58.7,89.8,61.9,90.2,64,90.2z M42,122v-3h-4v3h-9v-13.7c0-3.1,1.8-5.9,4.5-7.2l18-8.7l7.2,6.9c0.3,0.4,0.7,0.7,1.1,0.9L57.2,122   H42z M61.3,122l2.5-20.5c0.1,0,0.2,0,0.2,0s0.2,0,0.2,0l2.5,20.5H61.3z M99,122h-9v-3h-4v3H70.8l-2.7-21.8c0.4-0.3,0.8-0.6,1.1-0.9   l7.2-6.9l18,8.7c2.8,1.3,4.5,4.2,4.5,7.2V122z" fill="#3EBBC4"/></g></svg>