
<svg version="1.1" id="Layer_1" xmlns="http://www.w3.org/2000/svg" xmlns:xlink="http://www.w3.org/1999/xlink" x="0px" y="0px"
	 viewBox="0 0 64 64" style="enable-background:new 0 0 64 64;" xml:space="preserve">
<g id="XMLID_1_">
	<path id="XMLID_48_" d="M60,27.3c-1-1.5-2.8-2.3-4.6-2.3H34.9c0.6-3,0.7-6.3,0.6-8.1c-0.1-2.3-0.4-3.6-0.5-4
		c-0.4-2.1-1.5-3.3-2.3-4c-1.1-0.9-2.6-1.3-3.9-1.1c-1.2,0.1-2.4,0.7-3.1,1.6c-0.8,1-1.2,2.3-1.2,3.8c0,0,0,0.1,0,0.1
		c0.4,4-0.6,6.5-1.5,7.9c-0.9,1.4-1.8,1.9-1.9,2c-2.3,1.4-3.8,2.3-4.8,3C15.8,25.6,15,25,14,25H6c-1.6,0-3,1.6-3,3.2v24
		C3,53.8,4.4,55,6,55h8c1.1,0,2.1-0.6,2.6-1.6c0.9,0.9,2,1.7,3.3,2.3c2.3,1,4.3,1.1,4.4,1.1l9.4,0.5c0.3,0.1,0.6,0.1,0.9,0.1l1.4,0
		l0.4,0l0,0l5,0c1,0,2-0.4,2.7-1.1c0.7-0.7,1.1-1.7,1.1-2.7l0-2.4c0-0.6-0.2-1.2-0.5-1.8c1.1-0.7,1.9-1.9,1.9-3.3l0-2.4
		c0-0.6-0.2-1.2-0.5-1.8c0.3-0.2,0.5-0.3,0.7-0.6c0.7-0.7,1.1-1.7,1.1-2.7l0-2.4c0-0.4-0.1-0.9-0.2-1.3l7.5,0h0l0.4,0.1l0,0
		c2.1-0.2,3.6-1.2,4.5-2.7C61.2,30.8,61,28.8,60,27.3z M15,52.7c0,0.1-0.1,0.3-0.3,0.3H6.3C6.1,53,6,52.9,6,52.7V28.3
		C6,28.1,6.1,28,6.3,28h8.5c0.1,0,0.3,0.1,0.3,0.3V52.7z M17,29.3c1-0.6,2.2-1.8,5.4-3.7c0.1,0,1.5-0.8,2.8-2.8
		c0.7-1.1,1.3-2.4,1.6-3.8c0.4-1.7,0.5-3.7,0.3-5.7c-0.1-2.3,1.5-2.7,1.9-2.7c1.4-0.2,3,0.9,3.4,3.1c0,0,0,0.1,0,0.1
		c0,0,0.3,1.2,0.4,3.5c0.1,2.2-0.1,6-1.3,11.2c-0.3,1.1-2,6.7,0.2,9.3c0,0,0,0.1,0.1,0.1c0.3,0.3,0.8,1,0.6,1.5
		c-0.2,0.4-0.8,0.9-1.8,1.2c-1.6,0.6-4.1,0.9-7.3,0.9c-0.6,0-1,0.5-1,1l0,0.6c0,0.3,0.1,0.6,0.3,0.7c0.2,0.2,0.4,0.3,0.7,0.3
		c0,0,0,0,0,0c4.1,0,7-0.6,9-1.5c-0.1,0.4-0.2,0.8-0.2,1.2l0,2.4c0,0.6,0.2,1.2,0.5,1.8c-1.1,0.7-1.9,1.9-1.9,3.3l0,2.4
		c0,0.3,0.1,0.7,0.1,1l-6.5-0.3c0,0-1.6-0.1-3.4-0.8c-2.3-1-4-2.6-4-4.9V29.3z M33.4,53.6l0-2.4c0-0.7,0.5-1.2,1.2-1.2l6.9,0
		c0.7,0,1.2,0.5,1.2,1.2l0,2.4c0,0.3-0.1,0.6-0.4,0.9c-0.2,0.2-0.5,0.4-0.9,0.4l-6.9,0C33.9,54.8,33.4,54.2,33.4,53.6z M42.9,47.3
		l-6.9,0c-0.7,0-1.2-0.5-1.2-1.2l0-2.4c0-0.3,0.1-0.6,0.4-0.8c0.2-0.2,0.5-0.4,0.9-0.4l6.9,0c0.7,0,1.2,0.5,1.2,1.2l0,2.4
		C44.1,46.8,43.5,47.3,42.9,47.3z M44.3,39.9l-6.9,0c-0.3,0-0.6-0.1-0.9-0.4c-0.2-0.2-0.4-0.5-0.4-0.9l0-2.4c0-0.7,0.5-1.2,1.2-1.2
		l6.9,0c0.3,0,0.6,0.1,0.8,0.4c0.2,0.2,0.4,0.5,0.4,0.9l0,2.4c0,0.3-0.1,0.6-0.4,0.8C44.9,39.7,44.6,39.9,44.3,39.9z M43,32.4
		L43,32.4h-5.7c-1.9,0-3.4,1.4-3.7,3.2c-0.2-0.5-0.4-1.5-0.2-3.5c0.2-1.4,0.6-2.6,0.7-3c0,0,0-0.1,0-0.1c0.1-0.4,0.2-1,0.2-1h21
		l0.1,0l0.2,0c1-0.1,1.8,0.3,2.2,1c0.5,0.7,0.5,1.6,0.2,2.3c-0.5,1.1-2,1.2-2.7,1.3L43,32.4z"/>
	<path id="XMLID_56_" d="M10.1,51c1.4,0,2.5-1.1,2.5-2.5S11.5,46,10.1,46s-2.5,1.1-2.5,2.5S8.7,51,10.1,51z M10.1,49.4
		c-0.5,0-0.9-0.4-0.9-0.9s0.4-0.9,0.9-0.9s0.9,0.4,0.9,0.9S10.6,49.4,10.1,49.4z"/>
	<path id="XMLID_57_" d="M40,15.6c0.1,0.2,0.4,0.4,0.6,0.5c0.1,0,0.2,0,0.2,0c0.2,0,0.4,0,0.5-0.1l0.5-0.3c0.5-0.3,0.6-0.9,0.3-1.4
		l-4.3-7.1c-0.3-0.5-0.9-0.6-1.4-0.3L36,7.1c-0.2,0.1-0.4,0.4-0.5,0.6c-0.1,0.3,0,0.5,0.1,0.8L40,15.6z"/>
	<path id="XMLID_58_" d="M44.3,15.8l0.6,0.2c0.1,0,0.2,0,0.3,0c0.4,0,0.8-0.3,1-0.7l2-7.1c0.1-0.3,0-0.5-0.1-0.8
		c-0.1-0.2-0.3-0.4-0.6-0.5l-0.6-0.2c-0.5-0.1-1.1,0.2-1.2,0.7l-2,7.1c-0.1,0.3,0,0.5,0.1,0.8C43.8,15.5,44,15.7,44.3,15.8z"/>
	<path id="XMLID_59_" d="M47.3,18.2l0.3,0.5c0.1,0.2,0.4,0.4,0.6,0.4c0.1,0,0.1,0,0.2,0c0.2,0,0.4-0.1,0.6-0.2l7.1-4.7
		c0.2-0.1,0.4-0.4,0.4-0.6s0-0.5-0.1-0.8l-0.3-0.5c-0.3-0.5-0.9-0.6-1.4-0.3l-7.1,4.7C47.2,17.2,47,17.8,47.3,18.2z"/>
	<path id="XMLID_60_" d="M55.7,21.7l-7.1-1.4c-0.5-0.1-1.1,0.2-1.2,0.8l-0.1,0.6c-0.1,0.3,0,0.5,0.1,0.8c0.1,0.2,0.4,0.4,0.6,0.4
		l7.1,1.4c0.1,0,0.1,0,0.2,0c0.5,0,0.9-0.3,1-0.8l0.1-0.6c0.1-0.3,0-0.5-0.1-0.8C56.2,21.9,56,21.8,55.7,21.7z"/>
</g>
</svg>
